<svg width="22" height="21" viewBox="0 0 22 21" fill="none" xmlns="http://www.w3.org/2000/svg">
<g id="cart icon">
<path id="Icon" d="M1.40002 0C0.84774 0 0.400024 0.447715 0.400024 1C0.400024 1.55228 0.84774 2 1.40002 2V0ZM3.69256 1L4.65779 0.738585C4.53973 0.302682 4.14417 0 3.69256 0V1ZM7.41793 14.7552L6.45271 15.0166C6.58298 15.4976 7.0475 15.8093 7.54197 15.7475L7.41793 14.7552ZM18.8806 13.3224L19.0047 14.3147C19.4293 14.2616 19.7732 13.9441 19.8599 13.525L18.8806 13.3224ZM20.6 5.01194L21.5793 5.21455C21.6402 4.92003 21.5654 4.61373 21.3755 4.38052C21.1856 4.1473 20.9008 4.01194 20.6 4.01194V5.01194ZM4.77913 5.01194L3.8139 5.27336L4.77913 5.01194ZM1.40002 2H3.69256V0H1.40002V2ZM7.54197 15.7475L19.0047 14.3147L18.7566 12.3301L7.2939 13.7629L7.54197 15.7475ZM19.8599 13.525L21.5793 5.21455L19.6208 4.80934L17.9014 13.1198L19.8599 13.525ZM2.72733 1.26142L3.8139 5.27336L5.74435 4.75053L4.65779 0.738585L2.72733 1.26142ZM3.8139 5.27336L6.45271 15.0166L8.38316 14.4938L5.74435 4.75053L3.8139 5.27336ZM20.6 4.01194H4.77913V6.01194H20.6V4.01194ZM10 18.5073C10 18.7834 9.77617 19.0073 9.50002 19.0073V21.0073C10.8807 21.0073 12 19.888 12 18.5073H10ZM9.50002 19.0073C9.22388 19.0073 9.00002 18.7834 9.00002 18.5073H7.00002C7.00002 19.888 8.11931 21.0073 9.50002 21.0073V19.0073ZM9.00002 18.5073C9.00002 18.2311 9.22388 18.0073 9.50002 18.0073V16.0073C8.11931 16.0073 7.00002 17.1266 7.00002 18.5073H9.00002ZM9.50002 18.0073C9.77617 18.0073 10 18.2311 10 18.5073H12C12 17.1266 10.8807 16.0073 9.50002 16.0073V18.0073ZM18 18.5073C18 18.7834 17.7762 19.0073 17.5 19.0073V21.0073C18.8807 21.0073 20 19.888 20 18.5073H18ZM17.5 19.0073C17.2239 19.0073 17 18.7834 17 18.5073H15C15 19.888 16.1193 21.0073 17.5 21.0073V19.0073ZM17 18.5073C17 18.2311 17.2239 18.0073 17.5 18.0073V16.0073C16.1193 16.0073 15 17.1266 15 18.5073H17ZM17.5 18.0073C17.7762 18.0073 18 18.2311 18 18.5073H20C20 17.1266 18.8807 16.0073 17.5 16.0073V18.0073Z" fill="white"/>
</g>
</svg>
