<svg width="22" height="22" viewBox="0 0 22 22" fill="none" xmlns="http://www.w3.org/2000/svg">
<path d="M15 7.31543C16.5913 7.31543 18.1174 7.98084 19.2426 9.16528C20.3679 10.3497 21 11.9562 21 13.6312V20.9996H17V13.6312C17 13.0729 16.7893 12.5374 16.4142 12.1426C16.0391 11.7478 15.5304 11.526 15 11.526C14.4696 11.526 13.9609 11.7478 13.5858 12.1426C13.2107 12.5374 13 13.0729 13 13.6312V20.9996H9V13.6312C9 11.9562 9.63214 10.3497 10.7574 9.16528C11.8826 7.98084 13.4087 7.31543 15 7.31543Z" stroke="black" stroke-linecap="round" stroke-linejoin="round"/>
<path d="M5 8.36816H1V20.9997H5V8.36816Z" stroke="black" stroke-linecap="round" stroke-linejoin="round"/>
<path d="M3 5.21053C4.10457 5.21053 5 4.26797 5 3.10526C5 1.94256 4.10457 1 3 1C1.89543 1 1 1.94256 1 3.10526C1 4.26797 1.89543 5.21053 3 5.21053Z" stroke="black" stroke-linecap="round" stroke-linejoin="round"/>
</svg>
