<svg width="235" height="198" viewBox="0 0 235 198" fill="none" xmlns="http://www.w3.org/2000/svg">
<path fill-rule="evenodd" clip-rule="evenodd" d="M122.096 129.359C123.319 134.819 122.554 140.524 119.062 146.194C108.259 163.733 91.4257 167.354 73.7301 163.543C47.8915 157.977 20.2178 136.336 7.89348 120.452C7.30891 119.7 7.44343 118.606 8.1882 118.011C8.93415 117.411 10.0126 117.534 10.5971 118.286C22.558 133.703 49.396 154.737 74.4722 160.14C90.7205 163.639 106.237 160.477 116.158 144.367C119.113 139.574 119.743 134.757 118.72 130.138C115.728 130.796 112.758 131.359 109.815 131.825C101.691 133.11 80.3108 132.456 66.1113 126.517C55.9265 122.254 49.4392 115.285 52.6319 104.895C54.4077 99.1209 59.1445 95.9061 65.5321 94.9127C74.3132 93.5417 86.3635 96.4725 97.108 102.156C106.054 106.886 114.084 113.505 118.625 120.985C119.62 122.631 120.456 124.316 121.099 126.033C162.431 116.111 206.199 88.4742 230.895 54.4485C231.46 53.6753 232.532 53.4997 233.293 54.0678C234.056 54.6318 234.214 55.7209 233.653 56.4952C208.552 91.0741 164.126 119.188 122.096 129.359ZM117.691 126.812C114.878 127.424 112.085 127.95 109.316 128.387C101.53 129.616 81.0487 128.989 67.444 123.298C59.0944 119.806 53.2879 114.418 55.9042 105.903C57.2809 101.432 61.0785 99.1237 66.0233 98.3486C71.4638 97.5019 78.2375 98.4869 85.1125 100.782C95.5502 104.267 106.214 110.786 112.815 118.795C114.908 121.331 116.585 124.021 117.691 126.812Z" fill="white"/>
<path fill-rule="evenodd" clip-rule="evenodd" d="M168.53 69.3882C188.872 71.4182 213.124 64.2811 231.303 54.3694C232.139 53.9135 233.177 54.2302 233.619 55.0744C234.061 55.9186 233.744 56.9755 232.908 57.4314C214.162 67.6549 189.137 74.9416 168.166 72.8504C167.228 72.7575 166.545 71.9055 166.646 70.9481C166.746 69.9949 167.592 69.2953 168.53 69.3882Z" fill="white"/>
<path fill-rule="evenodd" clip-rule="evenodd" d="M233.196 57.7447C221.035 69.9503 213.722 91.8348 213.328 109.164C213.307 110.126 212.522 110.897 211.575 110.88C210.628 110.866 209.879 110.078 209.9 109.117C210.314 90.9621 218.055 68.0702 230.795 55.2824C231.469 54.6034 232.559 54.6058 233.222 55.2835C233.885 55.9656 233.874 57.0668 233.196 57.7447Z" fill="white"/>
</svg>
